<svg width="350" height="478" viewBox="0 0 350 478" fill="none" xmlns="http://www.w3.org/2000/svg">
<rect width="350" height="478" fill="#6E9C9F"/>
<g clip-path="url(#clip0_5209_823)">
<path d="M76.5508 269.948L75.4762 264.933C73.262 254.6 69.2048 244.889 63.416 236.059V227.922C66.0826 225.915 67.8105 222.725 67.8105 219.139V214.744C67.8105 213.531 66.8268 212.547 65.6133 212.547H63.416V204.197C63.416 202.984 62.4322 202 61.2187 202C60.0053 202 59.0215 202.984 59.0215 204.197V212.57C55.0752 212.8 51.6177 214.876 49.5 217.946C47.3823 214.876 43.9248 212.8 39.9785 212.57V204.197C39.9785 202.984 38.9947 202 37.7812 202C36.5678 202 35.584 202.984 35.584 204.197V212.547H33.3867C32.1732 212.547 31.1894 213.531 31.1894 214.744V219.139C31.1894 222.725 32.9174 225.915 35.584 227.922V236.059C29.7952 244.889 25.738 254.599 23.5238 264.933L22.4492 269.948C22.2195 271.02 22.8152 272.097 23.8456 272.473C32.0922 275.477 40.7235 277 49.5 277C58.2765 277 66.9079 275.477 75.1544 272.473C76.1848 272.097 76.7805 271.02 76.5508 269.948V269.948ZM59.7539 216.941H63.416V219.139C63.416 222.773 60.4589 225.73 56.8242 225.73H51.6973V224.998C51.6973 220.556 55.3115 216.941 59.7539 216.941ZM35.584 216.941H39.2461C43.6885 216.941 47.3027 220.556 47.3027 224.998V225.73H42.1758C38.5411 225.73 35.584 222.773 35.584 219.139V216.941ZM42.1758 230.125H56.8242C57.5766 230.125 58.3113 230.049 59.0215 229.904V234.52H39.9785V229.904C40.6887 230.049 41.4234 230.125 42.1758 230.125V230.125ZM49.5 272.605C41.8755 272.605 34.3668 271.384 27.1522 268.973L27.8206 265.854C29.8835 256.227 33.6316 247.17 38.967 238.914L60.0328 238.914C65.3682 247.17 69.1163 256.227 71.1792 265.854L71.8477 268.973C64.6333 271.384 57.1245 272.605 49.5 272.605Z" fill="white"/>
</g>
<path d="M110.42 227.084H113.48L116.864 235.976L120.284 227.084H123.344L118.916 238.208L123.308 248.756L131.948 226.94H135.476L124.784 252.5H121.976L116.9 240.44L111.788 252.5H108.98L98.324 226.94H101.816L110.492 248.756L114.848 238.208L110.42 227.084ZM151.837 252.68C150.037 252.68 148.405 252.32 146.941 251.6C145.477 250.88 144.205 249.908 143.125 248.684C142.069 247.436 141.253 246.044 140.677 244.508C140.101 242.948 139.813 241.352 139.813 239.72C139.813 238.016 140.113 236.396 140.713 234.86C141.337 233.3 142.189 231.92 143.269 230.72C144.373 229.496 145.657 228.536 147.121 227.84C148.585 227.12 150.181 226.76 151.909 226.76C153.709 226.76 155.341 227.132 156.805 227.876C158.269 228.62 159.529 229.616 160.585 230.864C161.641 232.112 162.457 233.504 163.033 235.04C163.609 236.576 163.897 238.148 163.897 239.756C163.897 241.46 163.597 243.092 162.997 244.652C162.397 246.188 161.545 247.568 160.441 248.792C159.361 249.992 158.089 250.94 156.625 251.636C155.161 252.332 153.565 252.68 151.837 252.68ZM143.089 239.72C143.089 241.016 143.293 242.276 143.701 243.5C144.133 244.7 144.733 245.768 145.501 246.704C146.269 247.64 147.193 248.384 148.273 248.936C149.353 249.488 150.553 249.764 151.873 249.764C153.241 249.764 154.465 249.476 155.545 248.9C156.625 248.324 157.537 247.556 158.281 246.596C159.049 245.636 159.625 244.556 160.009 243.356C160.417 242.156 160.621 240.944 160.621 239.72C160.621 238.424 160.405 237.176 159.973 235.976C159.565 234.776 158.965 233.708 158.173 232.772C157.405 231.812 156.481 231.068 155.401 230.54C154.345 229.988 153.169 229.712 151.873 229.712C150.505 229.712 149.281 230 148.201 230.576C147.121 231.128 146.197 231.884 145.429 232.844C144.685 233.804 144.109 234.884 143.701 236.084C143.293 237.26 143.089 238.472 143.089 239.72ZM194.102 252.5V232.988L185.678 248H183.698L175.238 232.988V252.5H171.998V226.94H175.418L184.67 243.536L193.958 226.94H197.342V252.5H194.102ZM214.839 226.94H217.575L228.015 252.5H224.559L221.535 245.012H210.807L207.819 252.5H204.363L214.839 226.94ZM220.815 242.492L216.207 230.684L211.455 242.492H220.815ZM233.118 249.98L249.606 229.82H233.442V226.94H253.386V229.46L237.186 249.62H253.386V252.5H233.118V249.98ZM261.337 252.5V226.94H264.577V252.5H261.337ZM277.529 232.916V252.5H274.289V226.94H277.025L292.649 246.92V226.976H295.889V252.5H292.937L277.529 232.916ZM315.852 252.68C314.172 252.68 312.6 252.32 311.136 251.6C309.696 250.856 308.436 249.872 307.356 248.648C306.276 247.4 305.436 246.008 304.836 244.472C304.236 242.912 303.936 241.304 303.936 239.648C303.936 237.92 304.236 236.288 304.836 234.752C305.436 233.192 306.264 231.812 307.32 230.612C308.4 229.412 309.66 228.476 311.1 227.804C312.564 227.108 314.148 226.76 315.852 226.76C318.324 226.76 320.364 227.276 321.972 228.308C323.58 229.34 324.792 230.684 325.608 232.34L323.124 234.068C322.38 232.58 321.36 231.476 320.064 230.756C318.768 230.036 317.34 229.676 315.78 229.676C314.484 229.676 313.308 229.952 312.252 230.504C311.196 231.056 310.284 231.812 309.516 232.772C308.772 233.708 308.196 234.776 307.788 235.976C307.404 237.176 307.212 238.424 307.212 239.72C307.212 241.088 307.428 242.384 307.86 243.608C308.316 244.808 308.952 245.876 309.768 246.812C310.584 247.724 311.532 248.444 312.612 248.972C313.692 249.5 314.856 249.764 316.104 249.764C317.568 249.764 318.96 249.392 320.28 248.648C321.6 247.904 322.848 246.764 324.024 245.228V248.576C321.72 251.312 318.996 252.68 315.852 252.68ZM323.628 242.204H318.12V239.756H326.364V252.5H323.628V242.204Z" fill="white"/>
<defs>
<clipPath id="clip0_5209_823">
<rect width="75" height="75" fill="white" transform="translate(12 202)"/>
</clipPath>
</defs>
</svg>
